<svg width="410" height="268" viewBox="0 0 410 268" fill="none" xmlns="http://www.w3.org/2000/svg">
<path d="M101.596 15.322L90.4748 46.4706C84.6035 63.1006 78.0035 82.7343 68.5216 111.767L89.8676 21.6097L72.7021 15.3594L22.0044 155L34.3449 159.704L45.4615 128.574C51.2721 112.551 57.5451 93.7353 67.3259 63.5958L46.0594 153.421L63.2389 159.671L113.918 20.0308L101.596 15.322Z" fill="white"/>
<path d="M132.368 78.8057L108.985 143.434C102.708 145.84 100.858 146.437 99.7417 146.54C99.8359 145.405 100.1 144.29 100.526 143.233L138.631 37.9173C142.144 28.4719 143.853 28.4719 145.231 28.4719C146.492 28.4719 147.94 28.8736 147.94 32.0221C147.94 35.3855 146.189 40.6361 144.293 45.8072L142.994 49.2687L155.834 53.9401L156.89 50.8617C159.692 42.4065 160.968 37.5623 160.968 31.2093C160.968 26.4819 159.566 22.5206 156.904 19.7458C154.241 16.971 150.43 15.4902 145.881 15.4902C140.831 15.4902 136.894 17.1439 133.503 20.6941C130.186 24.1556 127.234 29.621 124.208 37.8893L87.5414 138.809C84.8136 146.447 84.7108 152.384 87.2424 155.976C88.8912 158.312 91.5677 159.559 94.9774 159.559C100.919 159.559 104.23 155.85 111.265 147.736L120.606 151.076L145.138 83.449L132.368 78.8057Z" fill="white"/>
<path d="M136.511 154.612L150.542 159.662L161.061 130.98L147.03 125.93L136.511 154.612Z" fill="white"/>
<path d="M196.214 137.109C192.701 146.559 190.992 146.559 189.614 146.559C188.353 146.559 186.9 146.152 186.9 143.004C186.9 140.061 188.189 135.88 190.558 129.2L223.637 37.9173C227.149 28.4719 228.859 28.4719 230.237 28.4719C231.498 28.4719 232.95 28.8736 232.95 32.0221C232.95 35.3855 231.194 40.6361 229.302 45.8072L227.999 49.2687L240.84 53.9401L241.872 50.8383C244.674 42.3832 245.949 37.539 245.949 31.1859C245.949 26.4585 244.548 22.4972 241.886 19.7224C239.223 16.9477 235.412 15.4668 230.863 15.4668C225.813 15.4668 221.88 17.1205 218.485 20.6707C215.168 24.1322 212.216 29.5977 209.194 37.866L180.926 115.765C174.536 133.442 173.92 137.721 173.92 143.845C173.92 148.568 175.321 152.534 177.979 155.304C180.637 158.074 184.457 159.559 189.007 159.559C194.056 159.559 197.989 157.906 201.385 154.355C204.701 150.894 207.653 145.428 210.68 137.155L215.098 124.875L202.291 120.511L196.214 137.109Z" fill="white"/>
<path d="M328.11 37.9174C331.627 28.4719 333.337 28.4719 334.71 28.4719C335.976 28.4719 337.424 28.8736 337.424 32.0221C337.424 35.3902 335.672 40.6407 333.776 45.8073L332.477 49.2687L345.313 53.9401L346.35 50.8383C349.152 42.3785 350.423 37.5343 350.423 31.1859C350.423 26.4585 349.022 22.4972 346.364 19.7224C346.116 19.4608 345.855 19.2179 345.584 18.9797L350.783 4.67135L338.008 0L332.351 15.6584C329.041 16.1061 325.945 17.5514 323.477 19.8019C320.263 22.6888 317.601 27.0798 315.345 33.2366C310.431 46.7836 308.885 67.6879 307.404 87.9195C305.961 107.394 304.602 125.785 300.501 137.085C296.988 146.536 295.274 146.536 293.901 146.536C292.64 146.536 291.187 146.129 291.187 142.981C291.187 139.617 292.943 134.367 294.835 129.2L296.138 125.734L283.298 121.063L282.266 124.164C279.463 132.62 278.188 137.464 278.188 143.822C278.188 148.287 279.444 152.071 281.826 154.813L276.717 168.827L289.491 173.471L294.564 159.503C298.485 159.35 302.227 157.822 305.134 155.187C308.352 152.305 311.01 147.909 313.271 141.752C318.18 128.205 319.726 107.306 321.211 87.0973L320.441 87.0413L321.216 87.0786C322.65 67.5991 324.014 49.208 328.11 37.9174Z" fill="white"/>
<path d="M397.225 15.3547L373.371 81.2207H364.833L386.963 19.998L374.193 15.3547L323.486 155.028L336.256 159.671L360.11 94.2211H368.644L346.518 155.028L359.293 159.671L410 19.998L397.225 15.3547Z" fill="white"/>
<path d="M279.267 15.3921L217.845 154.981L230.648 159.653L258.29 94.2538H263.082L245.076 155.079L258.089 159.704L297.446 22.0534L279.267 15.3921ZM268.103 81.2254H262.652L282.882 31.8352L283.746 32.1716L268.388 81.2207L268.103 81.2254Z" fill="white"/>
<path d="M46.3257 244.153L93.8332 241.364L383.507 211.117L382.853 198.602H0.686633V211.108H173.588L341.109 207.684L214.473 216.199L0 238.594L0.303618 251.122L304.7 268L305.391 255.518L93.8472 243.788L46.3257 244.153Z" fill="white"/>
</svg>
